<svg width="20" height="20" viewBox="0 0 20 20" fill="none" xmlns="http://www.w3.org/2000/svg">
<path d="M2.50177 2.91861V4.58609H5.8359V2.91861C4.72453 2.91861 3.61314 2.91861 2.50177 2.91861ZM2.50177 4.58609C1.94595 4.58609 1.39012 4.58609 0.83429 4.58609V15.4186H2.50177V4.58609ZM2.50177 15.4186V17.0861H5.8359V15.4186H2.50177ZM12.501 4.17106V5.83771H14.1685V4.17106C13.6126 4.17106 13.0568 4.17106 12.501 4.17106ZM14.1685 5.83771V7.50521H15.8351V5.83771C15.2795 5.83771 14.724 5.83771 14.1685 5.83771ZM15.8351 7.50521V9.16861C11.9462 9.16861 8.05736 9.16861 4.16844 9.16861V10.8361H15.8351V12.5028H17.5026V10.8361H19.166V9.16861H17.5026V7.50521C16.9468 7.50521 16.3909 7.50521 15.8351 7.50521ZM15.8351 12.5028C15.2795 12.5028 14.724 12.5028 14.1685 12.5028V14.1702H15.8351V12.5028ZM14.1685 14.1702C13.6126 14.1702 13.0568 14.1702 12.501 14.1702V15.8369H14.1685V14.1702Z" fill="#A3B5A7"/>
</svg>
