<svg width="75" height="74" viewBox="0 0 75 74" fill="none" xmlns="http://www.w3.org/2000/svg">
<circle cx="37.5" cy="37" r="35.7778" fill="#4A8F60" stroke="#F3EFCD" stroke-width="1.55556"/>
<mask id="mask0_0_27" style="mask-type:luminance" maskUnits="userSpaceOnUse" x="16" y="14" width="43" height="46">
<path d="M16.9112 14.7642H58.0876V59.6441H16.9112V14.7642Z" fill="white"/>
</mask>
<g mask="url(#mask0_0_27)">
<path d="M16.9106 38.1915C16.9106 35.1844 18.8687 32.6256 21.6223 31.6111V25.6286V22.6351C23.7969 18.0701 30.076 14.7642 37.4988 14.7642C44.9218 14.7642 51.262 18.0022 53.3802 22.6351V25.6332V31.6111C56.1338 32.6256 58.0919 35.1888 58.0919 38.1915C58.0919 41.7826 55.2958 44.7445 51.6856 45.1838C51.8222 46.0216 51.8928 46.9137 51.8928 47.8648C51.8928 55.7902 47.1857 59.6396 37.5037 59.6396C27.8213 59.6396 23.1144 55.7856 23.1144 47.8648C23.1144 46.9137 23.185 46.0171 23.3215 45.1838C19.7113 44.7445 16.9153 41.7826 16.9153 38.1915H16.9106ZM46.6304 23.4186C42.6859 23.4186 41.0008 25.6332 37.5037 25.6332C34.0063 25.6332 32.3212 23.4186 28.3768 23.4186C27.4825 23.4186 26.6493 23.5364 25.8915 23.713V35.5195C25.8915 36.9732 26.0092 38.2549 26.2398 39.396C27.5531 38.1734 29.2852 37.2993 31.441 36.7557V31.3213C31.441 30.1529 32.4248 29.2109 33.6345 29.2109C34.8442 29.2109 35.828 30.1574 35.828 31.3213V36.1399C36.3692 36.1126 36.9246 36.0992 37.4988 36.0992C38.0732 36.0992 38.6426 36.1126 39.1887 36.1399V31.3213C39.1887 30.1529 40.1725 29.2109 41.3821 29.2109C42.5918 29.2109 43.5755 30.1574 43.5755 31.3213V36.7604C45.7219 37.3038 47.4495 38.1778 48.7579 39.396C48.9838 38.2594 49.1062 36.9777 49.1062 35.5195V23.7085C48.3484 23.5318 47.5153 23.4141 46.6257 23.4141L46.6304 23.4186ZM37.5037 55.5412C45.9055 55.5412 47.6282 52.4751 47.6282 47.8693C47.6282 43.2637 45.9055 40.1976 37.5037 40.1976C29.1017 40.1976 27.3789 43.2637 27.3789 47.8693C27.3789 52.4751 29.1017 55.5412 37.5037 55.5412Z" fill="#184623"/>
<path d="M44.6051 45.5138V47.0309C44.6051 48.6974 43.353 50.1196 41.6397 50.3821C40.3735 50.5723 38.9991 50.6675 37.4975 50.6675C35.9961 50.6675 34.6404 50.5723 33.3837 50.3868C31.6751 50.1285 30.4183 48.7019 30.4183 47.0354V45.5274C32.1646 46.3788 34.5463 46.8136 37.4975 46.8136C40.4489 46.8136 42.854 46.3741 44.6051 45.5138Z" fill="#184623"/>
<path d="M25.8862 35.516V23.7095C26.6441 23.5329 27.4772 23.4151 28.3715 23.4151C32.3159 23.4151 34.001 25.6297 37.4983 25.6297C40.9956 25.6297 42.6807 23.4151 46.625 23.4151C47.5195 23.4151 48.3526 23.5329 49.1057 23.7095V35.516C49.1057 36.9697 48.988 38.2512 48.7574 39.3925C47.4487 38.1744 45.7214 37.3003 43.575 36.7569V31.3178C43.575 30.1494 42.5912 29.2074 41.3816 29.2074C40.1719 29.2074 39.1882 30.1539 39.1882 31.3178V36.1364C38.642 36.1091 38.0774 36.0957 37.4983 36.0957C36.9194 36.0957 36.3638 36.1091 35.8272 36.1364V31.3178C35.8272 30.1494 34.8435 29.2074 33.6339 29.2074C32.4242 29.2074 31.4405 30.1539 31.4405 31.3178V36.7522C29.2847 37.2957 27.5525 38.1699 26.2393 39.3925C26.0133 38.2559 25.891 36.9742 25.891 35.516H25.8862Z" fill="#EEEAC8"/>
<path d="M47.6231 47.8692C47.6231 52.4748 45.9002 55.5409 37.4983 55.5409C29.0964 55.5409 27.3737 52.4748 27.3737 47.8692C27.3737 43.2634 29.0964 40.1973 37.4983 40.1973C45.9002 40.1973 47.6231 43.2634 47.6231 47.8692ZM30.4191 45.5278V47.0357C30.4191 48.7025 31.6759 50.1289 33.3845 50.3871C34.6413 50.5773 36.0109 50.6723 37.4983 50.6723C38.9857 50.6723 40.3743 50.5773 41.6405 50.3871C43.3491 50.1289 44.606 48.7025 44.606 47.0357V45.5186C42.8548 46.3792 40.4685 46.8184 37.4983 46.8184C34.5283 46.8184 32.1654 46.3837 30.4191 45.5322V45.5278Z" fill="#EEEAC8"/>
</g>
</svg>
