<svg width="142" height="54" viewBox="0 0 142 54" fill="none" xmlns="http://www.w3.org/2000/svg">
<path d="M129.685 17.1593V14.429H139.168V11.5172H129.685V9.12769H141.355V0.588094H119.334V25.6989H142V17.1602L129.685 17.1593ZM51.6477 53.4094H62.5633L52.9881 28.296H40.0569L30.4817 53.4094H41.3973L43.18 48.4431H49.8667L51.6477 53.4094ZM44.2253 45.5321L46.5242 39.1281L48.8232 45.5321H44.2253ZM118.137 0.588094H107.972L101.051 11.5113V0.588094H90.6976V25.6989H101.051V14.4425L106.955 25.6989H118.067L110.013 12.4082L118.137 0.588094ZM77.5758 0.578812V17.0134L72.0432 0.578812H61.6907V25.6897H72.0432V9.25341L77.5783 25.688H87.9274V0.577969H77.5766L77.5758 0.578812ZM46.5242 0C37.632 0 33.3276 3.39441 33.3276 13.1448C33.3276 22.8952 37.6312 26.2896 46.5242 26.2896C55.4164 26.2896 59.7217 22.8952 59.7217 13.1439C59.7217 3.39525 55.4155 0 46.5242 0ZM48.2414 21.9502C48.2414 22.8184 48.1223 23.7111 46.5242 23.7111C44.9252 23.7111 44.807 22.8184 44.807 21.9502V4.33687C44.807 3.4695 44.9261 2.57681 46.5251 2.57681C48.1232 2.57681 48.2414 3.4695 48.2414 4.33687V21.9502ZM74.8158 27.7104C65.9228 27.7104 61.6184 31.1048 61.6184 40.8561C61.6184 50.6048 65.9237 54 74.8158 54C83.708 54 88.0125 50.6056 88.0125 40.8552C88.0125 31.1048 83.708 27.7104 74.8158 27.7104ZM76.5322 49.6606C76.5322 50.5288 76.414 51.4215 74.8158 51.4215C73.2169 51.4215 73.0987 50.5288 73.0987 49.6606V32.0515C73.0987 31.1842 73.2177 30.2906 74.8158 30.2906C76.4148 30.2906 76.5322 31.1842 76.5322 32.0515V49.6606ZM15.7057 27.7104C6.35337 27.7104 3.09759 31.9975 3.09759 40.8561V53.433H28.3104V40.8552C28.3104 31.9975 25.0554 27.7104 15.7031 27.7104H15.7057ZM25.8387 41.4205C25.8387 43.0135 24.9831 43.1308 24.1488 43.1308H7.26088C6.42737 43.1308 5.57175 43.0127 5.57175 41.4205V39.7094H25.837V41.4205H25.8387ZM24.7331 0.169594C20.8309 0.169594 19.1639 2.43 15.7057 2.43C12.2466 2.43 10.5821 0.16875 6.67487 0.16875C2.76844 0.169594 0 2.43 0 2.43V25.6989H10.3491V11.3316C10.3491 10.4642 10.4682 9.5715 12.0663 9.5715C13.6653 9.5715 13.7827 10.4642 13.7827 11.3316V25.7006H17.627V11.3316C17.627 10.4642 17.7461 9.5715 19.345 9.5715C20.9432 9.5715 21.0614 10.4642 21.0614 11.3316V25.7006H31.4096V2.43C31.4096 2.43 28.637 0.16875 24.7339 0.16875L24.7331 0.169594Z" fill="#F3EFCD"/>
</svg>
