<svg width="1514" height="174" viewBox="0 0 1514 174" fill="none" xmlns="http://www.w3.org/2000/svg">
<path opacity="0.1" fill-rule="evenodd" clip-rule="evenodd" d="M853.984 95.0154V112.995L935.076 113.001V169.229H785.818V3.87262H930.831V60.1062H853.984V75.8412H916.426V95.0154H853.984ZM711.003 3.87262H777.937L724.44 81.7085L777.478 169.229H704.305L665.425 95.1043V169.229H597.248V3.87262H665.425V75.8023L711.003 3.87262ZM510.84 112.034V3.81151L510.846 3.80595H579.006V169.156H510.857L474.407 60.9341V169.168H406.236V3.81151H474.407L510.84 112.034ZM219.463 86.559C219.463 22.3523 247.809 0 306.364 0C364.914 0 393.27 22.3579 393.27 86.5534C393.27 150.766 364.919 173.118 306.364 173.118C247.803 173.118 219.463 150.766 219.463 86.559ZM306.364 156.138C316.888 156.138 317.672 150.26 317.672 144.543V28.5585C317.672 22.8468 316.893 16.9684 306.37 16.9684C295.84 16.9684 295.056 22.8468 295.056 28.5585V144.543C295.056 150.26 295.835 156.138 306.364 156.138ZM131.253 8.89611C140.302 5.06606 149.633 1.11678 162.868 1.11678L162.874 1.11123C188.576 1.11123 206.834 16.0017 206.834 16.0017V169.24H138.69V74.6188C138.69 68.9071 137.912 63.0288 127.388 63.0288C116.859 63.0288 116.075 68.9071 116.075 74.6188V169.24H90.7594V74.6188C90.7594 68.9071 89.9865 63.0288 79.4572 63.0288C68.9334 63.0288 68.1493 68.9071 68.1493 74.6188V169.229H0V16.0017C0 16.0017 18.2303 1.11678 43.9543 1.11123C57.2109 1.11123 66.5469 5.06401 75.5986 8.89642C84.1153 12.5023 92.3803 16.0017 103.423 16.0017C114.465 16.0017 122.734 12.5017 131.253 8.89611ZM1346.42 169.229H1274.54L1262.81 136.525H1218.78L1207.04 169.229H1135.16L1198.21 3.85606H1283.36L1346.42 169.229ZM1240.8 75.1857L1225.66 117.357H1255.94L1240.8 75.1857ZM1340.19 86.5646C1340.19 22.3524 1368.54 9.99378e-05 1427.1 9.99378e-05C1485.65 9.99378e-05 1514 22.3524 1514 86.5591C1514 150.766 1485.65 173.118 1427.1 173.118C1368.54 173.118 1340.19 150.76 1340.19 86.5646ZM1427.1 156.139C1437.62 156.139 1438.4 150.26 1438.4 144.543V28.5864C1438.4 22.8747 1437.63 16.9908 1427.1 16.9908C1416.58 16.9908 1415.79 22.8747 1415.79 28.5864V144.543C1415.79 150.26 1416.57 156.139 1427.1 156.139ZM954.831 86.5646C954.831 28.2308 976.271 9.99378e-05 1037.86 9.99378e-05H1037.84C1099.42 9.99378e-05 1120.86 28.2308 1120.86 86.5591V169.384H954.831V86.5646ZM1093.45 101.544C1098.95 101.544 1104.58 100.772 1104.58 90.2817H1104.57V79.0139H971.124V90.2817C971.124 100.766 976.758 101.544 982.247 101.544H1093.45Z" fill="#B8B495"/>
</svg>
