<svg width="142" height="59" viewBox="0 0 142 59" fill="none" xmlns="http://www.w3.org/2000/svg">
<path d="M129.685 17.1593V14.429H139.168V11.5172H129.685V9.12769H141.355V0.588094H119.334V25.6989H142V17.1602L129.685 17.1593ZM118.137 0.588094H107.972L101.051 11.5113V0.588094H90.6976V25.6989H101.051V14.4425L106.955 25.6989H118.067L110.013 12.4082L118.137 0.588094ZM77.5758 0.578812V17.0134L72.0432 0.578812H61.6907V25.6897H72.0432V9.25341L77.5783 25.688H87.9274V0.577969H77.5766L77.5758 0.578812ZM46.5242 0C37.632 0 33.3276 3.39441 33.3276 13.1448C33.3276 22.8952 37.6312 26.2896 46.5242 26.2896C55.4164 26.2896 59.7217 22.8952 59.7217 13.1439C59.7217 3.39525 55.4155 0 46.5242 0ZM48.2414 21.9502C48.2414 22.8184 48.1223 23.7111 46.5242 23.7111C44.9252 23.7111 44.807 22.8184 44.807 21.9502V4.33687C44.807 3.4695 44.9261 2.57681 46.5251 2.57681C48.1232 2.57681 48.2414 3.4695 48.2414 4.33687V21.9502ZM24.7331 0.169594C20.8309 0.169594 19.1639 2.43 15.7057 2.43C12.2466 2.43 10.5821 0.16875 6.67487 0.16875C2.76844 0.169594 0 2.43 0 2.43V25.6989H10.3491V11.3316C10.3491 10.4642 10.4682 9.5715 12.0663 9.5715C13.6653 9.5715 13.7827 10.4642 13.7827 11.3316V25.7006H17.627V11.3316C17.627 10.4642 17.7461 9.5715 19.345 9.5715C20.9432 9.5715 21.0614 10.4642 21.0614 11.3316V25.7006H31.4096V2.43C31.4096 2.43 28.637 0.16875 24.7339 0.16875L24.7331 0.169594Z" fill="#E5E5E5"/>
<path d="M105.55 57.6989H116.466L106.891 32.5856H93.9593L84.3841 57.6989H95.2997L97.0824 52.7326H103.769L105.55 57.6989ZM98.1277 49.8217L100.427 43.4176L102.726 49.8217H98.1277ZM128.718 32C119.825 32 115.521 35.3944 115.521 45.1456C115.521 54.8943 119.826 58.2896 128.718 58.2896C137.61 58.2896 141.915 54.8952 141.915 45.1448C141.915 35.3944 137.61 32 128.718 32ZM130.435 53.9502C130.435 54.8184 130.316 55.7111 128.718 55.7111C127.119 55.7111 127.001 54.8184 127.001 53.9502V36.3411C127.001 35.4737 127.12 34.5802 128.718 34.5802C130.317 34.5802 130.435 35.4737 130.435 36.3411V53.9502ZM69.6081 32C60.2558 32 57 36.2871 57 45.1456V57.7226H82.2128V45.1448C82.2128 36.2871 78.9578 32 69.6055 32H69.6081ZM79.7412 45.7101C79.7412 47.3031 78.8855 47.4204 78.0512 47.4204H61.1633C60.3298 47.4204 59.4742 47.3023 59.4742 45.7101V43.999H79.7395V45.7101H79.7412Z" fill="#E5E5E5"/>
</svg>
